{
    "asset" : {
        "generator" : "Khronos glTF Blender I/O v1.6.16",
        "version" : "2.0"
    },
    "scene" : 0,
    "scenes" : [
        {
            "name" : "Scene",
            "nodes" : [
                0
            ]
        }
    ],
    "nodes" : [
        {
            "mesh" : 0,
            "name" : "Design",
            "rotation" : [
                0.7071068286895752,
                0,
                0,
                0.7071068286895752
            ],
            "scale" : [
                0.2085215449333191,
                0.15680773556232452,
                0.2085215449333191
            ]
        }
    ],
    "meshes" : [
        {
            "name" : "Cylinder.001",
            "primitives" : [
                {
                    "attributes" : {
                        "POSITION" : 0,
                        "NORMAL" : 1,
                        "TEXCOORD_0" : 2
                    },
                    "indices" : 3
                }
            ]
        }
    ],
    "accessors" : [
        {
            "bufferView" : 0,
            "componentType" : 5126,
            "count" : 3436,
            "max" : [
                8.386576652526855,
                0.683044970035553,
                8.083898544311523
            ],
            "min" : [
                -6.402191638946533,
                -0.6975802779197693,
                -6.653143882751465
            ],
            "type" : "VEC3"
        },
        {
            "bufferView" : 1,
            "componentType" : 5126,
            "count" : 3436,
            "type" : "VEC3"
        },
        {
            "bufferView" : 2,
            "componentType" : 5126,
            "count" : 3436,
            "type" : "VEC2"
        },
        {
            "bufferView" : 3,
            "componentType" : 5123,
            "count" : 6420,
            "type" : "SCALAR"
        }
    ],
    "bufferViews" : [
        {
            "buffer" : 0,
            "byteLength" : 41232,
            "byteOffset" : 0
        },
        {
            "buffer" : 0,
            "byteLength" : 41232,
            "byteOffset" : 41232
        },
        {
            "buffer" : 0,
            "byteLength" : 27488,
            "byteOffset" : 82464
        },
        {
            "buffer" : 0,
            "byteLength" : 12840,
            "byteOffset" : 109952
        }
    ],
    "buffers" : [
        {
            "byteLength" : 122792,
            "uri" : "data:application/octet-stream;base64,"
        }
    ]
}
