{
    "asset" : {
        "generator" : "Khronos glTF Blender I/O v1.6.16",
        "version" : "2.0"
    },
    "scene" : 0,
    "scenes" : [
        {
            "name" : "Scene",
            "nodes" : [
                0
            ]
        }
    ],
    "nodes" : [
        {
            "mesh" : 0,
            "name" : "Business",
            "scale" : [
                1.1502089500427246,
                1.1502089500427246,
                0.19525112211704254
            ]
        }
    ],
    "meshes" : [
        {
            "name" : "Cube.017",
            "primitives" : [
                {
                    "attributes" : {
                        "POSITION" : 0,
                        "NORMAL" : 1,
                        "TEXCOORD_0" : 2
                    },
                    "indices" : 3
                }
            ]
        }
    ],
    "accessors" : [
        {
            "bufferView" : 0,
            "componentType" : 5126,
            "count" : 648,
            "max" : [
                1.273759126663208,
                1.1586780548095703,
                1.0600252151489258
            ],
            "min" : [
                -1.2657023668289185,
                -1.030176043510437,
                -1.0600252151489258
            ],
            "type" : "VEC3"
        },
        {
            "bufferView" : 1,
            "componentType" : 5126,
            "count" : 648,
            "type" : "VEC3"
        },
        {
            "bufferView" : 2,
            "componentType" : 5126,
            "count" : 648,
            "type" : "VEC2"
        },
        {
            "bufferView" : 3,
            "componentType" : 5123,
            "count" : 1248,
            "type" : "SCALAR"
        }
    ],
    "bufferViews" : [
        {
            "buffer" : 0,
            "byteLength" : 7776,
            "byteOffset" : 0
        },
        {
            "buffer" : 0,
            "byteLength" : 7776,
            "byteOffset" : 7776
        },
        {
            "buffer" : 0,
            "byteLength" : 5184,
            "byteOffset" : 15552
        },
        {
            "buffer" : 0,
            "byteLength" : 2496,
            "byteOffset" : 20736
        }
    ],
    "buffers" : [
        {
            "byteLength" : 23232,
            "uri" : "data:application/octet-stream;base64,"
        }
    ]
}
