{
    "asset" : {
        "generator" : "Khronos glTF Blender I/O v1.6.16",
        "version" : "2.0"
    },
    "scene" : 0,
    "scenes" : [
        {
            "name" : "Scene",
            "nodes" : [
                0
            ]
        }
    ],
    "nodes" : [
        {
            "mesh" : 0,
            "name" : "Game"
        }
    ],
    "meshes" : [
        {
            "name" : "Cube.018",
            "primitives" : [
                {
                    "attributes" : {
                        "POSITION" : 0,
                        "NORMAL" : 1,
                        "TEXCOORD_0" : 2
                    },
                    "indices" : 3
                }
            ]
        }
    ],
    "accessors" : [
        {
            "bufferView" : 0,
            "componentType" : 5126,
            "count" : 1936,
            "max" : [
                1.5624403953552246,
                1.0131994485855103,
                0.13957111537456512
            ],
            "min" : [
                -1.6237199306488037,
                -1.0867036581039429,
                -0.13957124948501587
            ],
            "type" : "VEC3"
        },
        {
            "bufferView" : 1,
            "componentType" : 5126,
            "count" : 1936,
            "type" : "VEC3"
        },
        {
            "bufferView" : 2,
            "componentType" : 5126,
            "count" : 1936,
            "type" : "VEC2"
        },
        {
            "bufferView" : 3,
            "componentType" : 5123,
            "count" : 3864,
            "type" : "SCALAR"
        }
    ],
    "bufferViews" : [
        {
            "buffer" : 0,
            "byteLength" : 23232,
            "byteOffset" : 0
        },
        {
            "buffer" : 0,
            "byteLength" : 23232,
            "byteOffset" : 23232
        },
        {
            "buffer" : 0,
            "byteLength" : 15488,
            "byteOffset" : 46464
        },
        {
            "buffer" : 0,
            "byteLength" : 7728,
            "byteOffset" : 61952
        }
    ],
    "buffers" : [
        {
            "byteLength" : 69680,
            "uri" : "data:application/octet-stream;base64,"
        }
    ]
}
