{
    "asset" : {
        "generator" : "Khronos glTF Blender I/O v1.6.16",
        "version" : "2.0"
    },
    "scene" : 0,
    "scenes" : [
        {
            "name" : "Scene",
            "nodes" : [
                0
            ]
        }
    ],
    "nodes" : [
        {
            "mesh" : 0,
            "name" : "Production",
            "scale" : [
                1,
                1,
                0.11816411465406418
            ]
        }
    ],
    "meshes" : [
        {
            "name" : "Cube.002",
            "primitives" : [
                {
                    "attributes" : {
                        "POSITION" : 0,
                        "NORMAL" : 1,
                        "TEXCOORD_0" : 2
                    },
                    "indices" : 3
                }
            ]
        }
    ],
    "accessors" : [
        {
            "bufferView" : 0,
            "componentType" : 5126,
            "count" : 412,
            "max" : [
                1.2248033285140991,
                1.5344610214233398,
                0.9224361777305603
            ],
            "min" : [
                -1.206321358680725,
                -1.294041395187378,
                -0.9224357008934021
            ],
            "type" : "VEC3"
        },
        {
            "bufferView" : 1,
            "componentType" : 5126,
            "count" : 412,
            "type" : "VEC3"
        },
        {
            "bufferView" : 2,
            "componentType" : 5126,
            "count" : 412,
            "type" : "VEC2"
        },
        {
            "bufferView" : 3,
            "componentType" : 5123,
            "count" : 828,
            "type" : "SCALAR"
        }
    ],
    "bufferViews" : [
        {
            "buffer" : 0,
            "byteLength" : 4944,
            "byteOffset" : 0
        },
        {
            "buffer" : 0,
            "byteLength" : 4944,
            "byteOffset" : 4944
        },
        {
            "buffer" : 0,
            "byteLength" : 3296,
            "byteOffset" : 9888
        },
        {
            "buffer" : 0,
            "byteLength" : 1656,
            "byteOffset" : 13184
        }
    ],
    "buffers" : [
        {
            "byteLength" : 14840,
            "uri" : "data:application/octet-stream;base64,"
        }
    ]
}
