{
    "asset" : {
        "generator" : "Khronos glTF Blender I/O v1.6.16",
        "version" : "2.0"
    },
    "scene" : 0,
    "scenes" : [
        {
            "name" : "Scene",
            "nodes" : [
                0,
                1,
                2,
                3,
                4,
                5,
                6,
                7,
                8
            ]
        }
    ],
    "nodes" : [
        {
            "name" : "Light",
            "rotation" : [
                0.16907575726509094,
                0.7558803558349609,
                -0.27217137813568115,
                0.570947527885437
            ],
            "translation" : [
                4.076245307922363,
                5.903861999511719,
                -1.0054539442062378
            ]
        },
        {
            "mesh" : 0,
            "name" : "Television_01"
        },
        {
            "mesh" : 1,
            "name" : "Television_01.001"
        },
        {
            "mesh" : 2,
            "name" : "screen"
        },
        {
            "mesh" : 3,
            "name" : "Cube",
            "scale" : [
                0.029555222019553185,
                0.029555222019553185,
                0.029555222019553185
            ],
            "translation" : [
                0,
                0.029581520706415176,
                0
            ]
        },
        {
            "name" : "Cylinder",
            "rotation" : [
                0.7071068286895752,
                0,
                0,
                0.7071067094802856
            ],
            "scale" : [
                0.038301680237054825,
                0.038301680237054825,
                0.038301680237054825
            ],
            "translation" : [
                0.21917074918746948,
                0.34300702810287476,
                0.17680780589580536
            ]
        },
        {
            "mesh" : 4,
            "name" : "Cylinder.001",
            "rotation" : [
                0.7071068286895752,
                0,
                0,
                0.7071067094802856
            ],
            "scale" : [
                0.03567741438746452,
                0.025398554280400276,
                0.03567741438746452
            ],
            "translation" : [
                0.21174359321594238,
                0.34515711665153503,
                0.17559903860092163
            ]
        },
        {
            "mesh" : 5,
            "name" : "Cylinder.002",
            "rotation" : [
                0.7071068286895752,
                0,
                0,
                0.7071067094802856
            ],
            "scale" : [
                0.03567741438746452,
                0.025398554280400276,
                0.03567741438746452
            ],
            "translation" : [
                0.21174359321594238,
                0.26515501737594604,
                0.17559903860092163
            ]
        },
        {
            "mesh" : 6,
            "name" : "Cylinder.003",
            "rotation" : [
                -0.7071067094802856,
                0,
                0,
                0.7071068286895752
            ],
            "scale" : [
                0.007432902697473764,
                0.007432902697473764,
                0.007432902697473764
            ],
            "translation" : [
                0.24728846549987793,
                0.204718679189682,
                0.19007714092731476
            ]
        }
    ],
    "materials" : [
        {
            "doubleSided" : true,
            "name" : "Television_01",
            "pbrMetallicRoughness" : {
                "baseColorFactor" : [
                    0.800000011920929,
                    0.800000011920929,
                    0.800000011920929,
                    1
                ],
                "metallicFactor" : 0,
                "roughnessFactor" : 0.5
            }
        }
    ],
    "meshes" : [
        {
            "name" : "Cube.021",
            "primitives" : [
                {
                    "attributes" : {
                        "POSITION" : 0,
                        "NORMAL" : 1,
                        "TEXCOORD_0" : 2,
                        "COLOR_0" : 3
                    },
                    "indices" : 4,
                    "material" : 0
                }
            ]
        },
        {
            "name" : "Cube.002",
            "primitives" : [
                {
                    "attributes" : {
                        "POSITION" : 5,
                        "NORMAL" : 6,
                        "TEXCOORD_0" : 7,
                        "COLOR_0" : 8
                    },
                    "indices" : 9,
                    "material" : 0
                }
            ]
        },
        {
            "name" : "Cube.004",
            "primitives" : [
                {
                    "attributes" : {
                        "POSITION" : 10,
                        "NORMAL" : 11,
                        "TEXCOORD_0" : 12,
                        "COLOR_0" : 13
                    },
                    "indices" : 14,
                    "material" : 0
                }
            ]
        },
        {
            "name" : "Cube.001",
            "primitives" : [
                {
                    "attributes" : {
                        "POSITION" : 15,
                        "NORMAL" : 16,
                        "TEXCOORD_0" : 17
                    },
                    "indices" : 18
                }
            ]
        },
        {
            "name" : "Cylinder.001",
            "primitives" : [
                {
                    "attributes" : {
                        "POSITION" : 19,
                        "NORMAL" : 20,
                        "TEXCOORD_0" : 21
                    },
                    "indices" : 22
                }
            ]
        },
        {
            "name" : "Cylinder.002",
            "primitives" : [
                {
                    "attributes" : {
                        "POSITION" : 23,
                        "NORMAL" : 24,
                        "TEXCOORD_0" : 25
                    },
                    "indices" : 22
                }
            ]
        },
        {
            "name" : "Cylinder.003",
            "primitives" : [
                {
                    "attributes" : {
                        "POSITION" : 26,
                        "NORMAL" : 27,
                        "TEXCOORD_0" : 28
                    },
                    "indices" : 29
                }
            ]
        }
    ],
    "accessors" : [
        {
            "bufferView" : 0,
            "componentType" : 5126,
            "count" : 501,
            "max" : [
                0.30000007152557373,
                0.4568334221839905,
                0.19321005046367645
            ],
            "min" : [
                -0.30000069737434387,
                0.008984480984508991,
                -0.25836652517318726
            ],
            "type" : "VEC3"
        },
        {
            "bufferView" : 1,
            "componentType" : 5126,
            "count" : 501,
            "type" : "VEC3"
        },
        {
            "bufferView" : 2,
            "componentType" : 5126,
            "count" : 501,
            "type" : "VEC2"
        },
        {
            "bufferView" : 3,
            "componentType" : 5123,
            "count" : 501,
            "normalized" : true,
            "type" : "VEC4"
        },
        {
            "bufferView" : 4,
            "componentType" : 5123,
            "count" : 792,
            "type" : "SCALAR"
        },
        {
            "bufferView" : 5,
            "componentType" : 5126,
            "count" : 326,
            "max" : [
                0.2310892641544342,
                0.4279375374317169,
                -0.13593855500221252
            ],
            "min" : [
                -0.2702237367630005,
                0.3822803199291229,
                -0.1608494520187378
            ],
            "type" : "VEC3"
        },
        {
            "bufferView" : 6,
            "componentType" : 5126,
            "count" : 326,
            "type" : "VEC3"
        },
        {
            "bufferView" : 7,
            "componentType" : 5126,
            "count" : 326,
            "type" : "VEC2"
        },
        {
            "bufferView" : 8,
            "componentType" : 5123,
            "count" : 326,
            "normalized" : true,
            "type" : "VEC4"
        },
        {
            "bufferView" : 9,
            "componentType" : 5123,
            "count" : 540,
            "type" : "SCALAR"
        },
        {
            "bufferView" : 10,
            "componentType" : 5126,
            "count" : 15,
            "max" : [
                0.12633970379829407,
                0.4043028652667999,
                0.19384779036045074
            ],
            "min" : [
                -0.2571429908275604,
                0.11407705396413803,
                0.1688435822725296
            ],
            "type" : "VEC3"
        },
        {
            "bufferView" : 11,
            "componentType" : 5126,
            "count" : 15,
            "type" : "VEC3"
        },
        {
            "bufferView" : 12,
            "componentType" : 5126,
            "count" : 15,
            "type" : "VEC2"
        },
        {
            "bufferView" : 13,
            "componentType" : 5123,
            "count" : 15,
            "normalized" : true,
            "type" : "VEC4"
        },
        {
            "bufferView" : 14,
            "componentType" : 5123,
            "count" : 60,
            "type" : "SCALAR"
        },
        {
            "bufferView" : 15,
            "componentType" : 5126,
            "count" : 96,
            "max" : [
                9.057571411132812,
                -0.4412820339202881,
                3.7395880222320557
            ],
            "min" : [
                -9.144048690795898,
                -1,
                -6.155406951904297
            ],
            "type" : "VEC3"
        },
        {
            "bufferView" : 16,
            "componentType" : 5126,
            "count" : 96,
            "type" : "VEC3"
        },
        {
            "bufferView" : 17,
            "componentType" : 5126,
            "count" : 96,
            "type" : "VEC2"
        },
        {
            "bufferView" : 18,
            "componentType" : 5123,
            "count" : 144,
            "type" : "SCALAR"
        },
        {
            "bufferView" : 19,
            "componentType" : 5126,
            "count" : 208,
            "max" : [
                1,
                1.3988263607025146,
                1
            ],
            "min" : [
                -1,
                -1,
                -1
            ],
            "type" : "VEC3"
        },
        {
            "bufferView" : 20,
            "componentType" : 5126,
            "count" : 208,
            "type" : "VEC3"
        },
        {
            "bufferView" : 21,
            "componentType" : 5126,
            "count" : 208,
            "type" : "VEC2"
        },
        {
            "bufferView" : 22,
            "componentType" : 5123,
            "count" : 336,
            "type" : "SCALAR"
        },
        {
            "bufferView" : 23,
            "componentType" : 5126,
            "count" : 208,
            "max" : [
                1,
                1.3988263607025146,
                1
            ],
            "min" : [
                -1,
                -1,
                -1
            ],
            "type" : "VEC3"
        },
        {
            "bufferView" : 24,
            "componentType" : 5126,
            "count" : 208,
            "type" : "VEC3"
        },
        {
            "bufferView" : 25,
            "componentType" : 5126,
            "count" : 208,
            "type" : "VEC2"
        },
        {
            "bufferView" : 26,
            "componentType" : 5126,
            "count" : 144,
            "max" : [
                0.8818778991699219,
                0.5892218351364136,
                0.8330353498458862
            ],
            "min" : [
                -0.8818761110305786,
                -1.7122039794921875,
                -0.9307186603546143
            ],
            "type" : "VEC3"
        },
        {
            "bufferView" : 27,
            "componentType" : 5126,
            "count" : 144,
            "type" : "VEC3"
        },
        {
            "bufferView" : 28,
            "componentType" : 5126,
            "count" : 144,
            "type" : "VEC2"
        },
        {
            "bufferView" : 29,
            "componentType" : 5123,
            "count" : 228,
            "type" : "SCALAR"
        }
    ],
    "bufferViews" : [
        {
            "buffer" : 0,
            "byteLength" : 6012,
            "byteOffset" : 0
        },
        {
            "buffer" : 0,
            "byteLength" : 6012,
            "byteOffset" : 6012
        },
        {
            "buffer" : 0,
            "byteLength" : 4008,
            "byteOffset" : 12024
        },
        {
            "buffer" : 0,
            "byteLength" : 4008,
            "byteOffset" : 16032
        },
        {
            "buffer" : 0,
            "byteLength" : 1584,
            "byteOffset" : 20040
        },
        {
            "buffer" : 0,
            "byteLength" : 3912,
            "byteOffset" : 21624
        },
        {
            "buffer" : 0,
            "byteLength" : 3912,
            "byteOffset" : 25536
        },
        {
            "buffer" : 0,
            "byteLength" : 2608,
            "byteOffset" : 29448
        },
        {
            "buffer" : 0,
            "byteLength" : 2608,
            "byteOffset" : 32056
        },
        {
            "buffer" : 0,
            "byteLength" : 1080,
            "byteOffset" : 34664
        },
        {
            "buffer" : 0,
            "byteLength" : 180,
            "byteOffset" : 35744
        },
        {
            "buffer" : 0,
            "byteLength" : 180,
            "byteOffset" : 35924
        },
        {
            "buffer" : 0,
            "byteLength" : 120,
            "byteOffset" : 36104
        },
        {
            "buffer" : 0,
            "byteLength" : 120,
            "byteOffset" : 36224
        },
        {
            "buffer" : 0,
            "byteLength" : 120,
            "byteOffset" : 36344
        },
        {
            "buffer" : 0,
            "byteLength" : 1152,
            "byteOffset" : 36464
        },
        {
            "buffer" : 0,
            "byteLength" : 1152,
            "byteOffset" : 37616
        },
        {
            "buffer" : 0,
            "byteLength" : 768,
            "byteOffset" : 38768
        },
        {
            "buffer" : 0,
            "byteLength" : 288,
            "byteOffset" : 39536
        },
        {
            "buffer" : 0,
            "byteLength" : 2496,
            "byteOffset" : 39824
        },
        {
            "buffer" : 0,
            "byteLength" : 2496,
            "byteOffset" : 42320
        },
        {
            "buffer" : 0,
            "byteLength" : 1664,
            "byteOffset" : 44816
        },
        {
            "buffer" : 0,
            "byteLength" : 672,
            "byteOffset" : 46480
        },
        {
            "buffer" : 0,
            "byteLength" : 2496,
            "byteOffset" : 47152
        },
        {
            "buffer" : 0,
            "byteLength" : 2496,
            "byteOffset" : 49648
        },
        {
            "buffer" : 0,
            "byteLength" : 1664,
            "byteOffset" : 52144
        },
        {
            "buffer" : 0,
            "byteLength" : 1728,
            "byteOffset" : 53808
        },
        {
            "buffer" : 0,
            "byteLength" : 1728,
            "byteOffset" : 55536
        },
        {
            "buffer" : 0,
            "byteLength" : 1152,
            "byteOffset" : 57264
        },
        {
            "buffer" : 0,
            "byteLength" : 456,
            "byteOffset" : 58416
        }
    ],
    "buffers" : [
        {
            "byteLength" : 58872,
            "uri" : "data:application/octet-stream;base64,"
        }
    ]
}
